Coordinates
version=1
nRows=13
nColumns=38
inDegrees=no

Units are S.I. units (second, meters, Newtons, ...)
If the header above contains a line with 'inDegrees', this indicates whether rotational values are in degrees (yes) or radians (no).

endheader
time	pelvis_tilt	pelvis_list	pelvis_rotation	pelvis_tx	pelvis_ty	pelvis_tz	hip_flexion_r	hip_adduction_r	hip_rotation_r	knee_angle_r	ankle_angle_r	subtalar_angle_r	mtp_angle_r	hip_flexion_l	hip_adduction_l	hip_rotation_l	knee_angle_l	ankle_angle_l	subtalar_angle_l	mtp_angle_l	lumbar_extension	lumbar_bending	lumbar_rotation	arm_flex_r	arm_add_r	arm_rot_r	elbow_flex_r	pro_sup_r	wrist_flex_r	wrist_dev_r	arm_flex_l	arm_add_l	arm_rot_l	elbow_flex_l	pro_sup_l	wrist_flex_l	wrist_dev_l
1.17	2.19116	1.38433	-0.489832	0.600526	0.893466	0.93887	0.218542	0.161563	-0.301445	0.318343	-0.00820176	0	0	0.00953409	-0.251727	-0.0279506	1.18021	-0.24502	0	0	-0.181289	0.152772	-0.138274	-0.259871	-0.0487542	-0.562528	0.424675	1.12774	0	0	-0.0990839	-0.337563	0.59731	0.623422	0.598316	0	0
1.18	2.20497	1.38257	-0.505387	0.600939	0.903162	0.940659	0.201176	0.165517	-0.294301	0.314804	-0.00227235	0	0	0.0365824	-0.249749	-0.0160173	1.22389	-0.237868	0	0	-0.185597	0.153343	-0.136377	-0.259935	-0.0503881	-0.560598	0.421839	1.12098	0	0	-0.0981606	-0.337235	0.595759	0.622842	0.601932	0	0
1.19	2.22224	1.38237	-0.526462	0.601475	0.912731	0.942565	0.183401	0.167766	-0.285579	0.310082	0.00314598	0	0	0.0623068	-0.246303	-0.00859517	1.26329	-0.21882	0	0	-0.189867	0.151701	-0.132781	-0.259424	-0.0517704	-0.559282	0.418211	1.10912	0	0	-0.0973577	-0.337436	0.596896	0.621909	0.602326	0	0
1.2	2.2413	1.38375	-0.551138	0.602153	0.922094	0.944531	0.165623	0.168644	-0.27553	0.303722	0.00735092	0	0	0.0874016	-0.241435	-0.00502352	1.2978	-0.196175	0	0	-0.193933	0.147943	-0.127603	-0.258736	-0.052826	-0.557902	0.412443	1.09995	0	0	-0.0963236	-0.337599	0.595036	0.623404	0.599776	0	0
1.21	2.26124	1.38629	-0.578927	0.602951	0.93124	0.946523	0.147986	0.168526	-0.264392	0.296075	0.0105932	0	0	0.111813	-0.235493	-0.00515994	1.32722	-0.175761	0	0	-0.197949	0.142754	-0.120341	-0.258121	-0.0537773	-0.556614	0.405559	1.0975	0	0	-0.0950156	-0.337313	0.590881	0.625825	0.596397	0	0
1.22	2.27995	1.38944	-0.606743	0.603847	0.940237	0.948479	0.130374	0.167991	-0.253368	0.286776	0.0127554	0	0	0.136066	-0.229426	-0.00721866	1.35169	-0.160003	0	0	-0.201406	0.137162	-0.111818	-0.257787	-0.0541031	-0.558254	0.400483	1.09737	0	0	-0.0938358	-0.33763	0.591135	0.626795	0.591019	0	0
1.23	2.29823	1.39278	-0.635281	0.604822	0.949086	0.950359	0.112319	0.167348	-0.242105	0.275787	0.0142645	0	0	0.159812	-0.223778	-0.0110213	1.37129	-0.148829	0	0	-0.204686	0.131316	-0.10218	-0.25774	-0.0541138	-0.560706	0.397403	1.09759	0	0	-0.0917164	-0.338052	0.591916	0.627318	0.586077	0	0
1.24	2.31797	1.39601	-0.666465	0.60585	0.95785	0.952178	0.0934377	0.166479	-0.230285	0.263572	0.0159754	0	0	0.182038	-0.218808	-0.016774	1.38572	-0.140887	0	0	-0.208304	0.125413	-0.0913233	-0.25842	-0.0539161	-0.563322	0.396784	1.0983	0	0	-0.089604	-0.33861	0.593315	0.627148	0.584275	0	0
1.25	2.33774	1.399	-0.698511	0.606907	0.966506	0.953894	0.0742241	0.165392	-0.218174	0.250581	0.0175882	0	0	0.203346	-0.214798	-0.0238917	1.39562	-0.135395	0	0	-0.212259	0.119724	-0.0801086	-0.259378	-0.0536855	-0.565773	0.398537	1.09871	0	0	-0.0880039	-0.338965	0.591294	0.628643	0.584073	0	0
1.26	2.36847	1.40316	-0.741253	0.609257	0.974966	0.955418	0.0559072	0.166365	-0.199918	0.239544	0.0157884	0	0	0.225311	-0.222226	-0.0255233	1.39873	-0.124639	0	0	-0.21659	0.109926	-0.0694807	-0.260927	-0.0515187	-0.567073	0.402691	1.09806	0	0	-0.0862115	-0.341073	0.588729	0.629518	0.584561	0	0
1.27	2.39167	1.40568	-0.777555	0.610374	0.983409	0.956948	0.0368919	0.164322	-0.186491	0.227133	0.0172863	0	0	0.24435	-0.220036	-0.0342222	1.3998	-0.121227	0	0	-0.221003	0.104159	-0.0581279	-0.26209	-0.0514524	-0.566262	0.407718	1.09391	0	0	-0.0847657	-0.341686	0.58738	0.630439	0.586185	0	0
1.28	2.41813	1.40788	-0.817527	0.611475	0.991827	0.958412	0.0178051	0.161555	-0.172124	0.21528	0.0189273	0	0	0.261202	-0.217852	-0.0434618	1.39635	-0.116136	0	0	-0.225844	0.0980648	-0.0469722	-0.262735	-0.0517952	-0.563717	0.4116	1.09073	0	0	-0.0840822	-0.342402	0.585424	0.631182	0.589609	0	0
1.29	2.44642	1.40974	-0.859933	0.612547	1.00021	0.959795	-0.00110512	0.158184	-0.156389	0.204179	0.0207312	0	0	0.275876	-0.215776	-0.0535088	1.38853	-0.109087	0	0	-0.230771	0.0918452	-0.0359153	-0.263124	-0.0522696	-0.561056	0.417017	1.08553	0	0	-0.0838186	-0.342935	0.583446	0.631064	0.594329	0	0
